# xmcd
#
# Track frame offsets:
#	150
#	19539
#	40930
#	57919
#	78587
#	101396
#	117472
#	132431
#	150907
#	174439
#	189578
#	208598
#	227556
#	245761
#	267875
#	283935
#	305826
#	324600
#	346706
#
# Disc length: 4767 seconds
#
# Revision: 6
# Processed by: cddbd v1.5.2PL0 Copyright (c) Steve Scherf et al.
# Submitted via: Jack! The Knife 19 Blackthorn
#
DISCID=0b129d13
DTITLE=Bee Gees - The Ultimate Bee Gees [CD 1)
DYEAR=2009
DGENRE=Disco
TTITLE0=You Should Be Dancing
TTITLE1=Stayin' Alive
TTITLE2=Jive Talkin'
TTITLE3=Nights On Broadway
TTITLE4=Tragedy
TTITLE5=Night Fever
TTITLE6=More Than A Woman
TTITLE7=Fanny (Be Tender With My Love)
TTITLE8=Spirits Having Flown
TTITLE9=If I Can't Have You
TTITLE10=Boogie Child
TTITLE11=Love You Inside Out
TTITLE12=You Win Again
TTITLE13=One
TTITLE14=Secret Love
TTITLE15=Alone
TTITLE16=Still Waters (Run Deep)
TTITLE17=This Is Where I Came In
TTITLE18=Spicks And Specks (Live)
EXTD=
EXTT0=B. Gibb, M. Gibb, R. Gibb
EXTT1=B. Gibb, M. Gibb, R. Gibb
EXTT2=B. Gibb, M. Gibb, R. Gibb
EXTT3=B. Gibb, M. Gibb, R. Gibb
EXTT4=B. Gibb, M. Gibb, R. Gibb
EXTT5=B. Gibb, M. Gibb, R. Gibb
EXTT6=B. Gibb, M. Gibb, R. Gibb
EXTT7=B. Gibb, M. Gibb, R. Gibb
EXTT8=B. Gibb, M. Gibb, R. Gibb
EXTT9=B. Gibb, M. Gibb, R. Gibb
EXTT10=B. Gibb, M. Gibb, R. Gibb
EXTT11=B. Gibb, M. Gibb, R. Gibb
EXTT12=B. Gibb, M. Gibb, R. Gibb
EXTT13=B. Gibb, M. Gibb, R. Gibb
EXTT14=B. Gibb, M. Gibb, R. Gibb
EXTT15=B. Gibb, M. Gibb, R. Gibb
EXTT16=B. Gibb, M. Gibb, R. Gibb
EXTT17=B. Gibb, M. Gibb, R. Gibb
EXTT18=Barry Gibb
PLAYORDER=
